<svg xmlns="http://www.w3.org/2000/svg" viewBox="0 0 256 256" role="img" aria-labelledby="title desc">
  <title id="title">Tate Football League logo</title>
  <desc id="desc">Shield with the letters TFL and a small football accent.</desc>
  <defs>
    <linearGradient id="bg" x1="0%" x2="0%" y1="0%" y2="100%">
      <stop offset="0%" stop-color="#0f1e3f"/>
      <stop offset="100%" stop-color="#1c3a74"/>
    </linearGradient>
  </defs>
  <rect x="6" y="6" width="244" height="244" rx="40" fill="url(#bg)" stroke="#d21d2a" stroke-width="10"/>
  <rect x="20" y="20" width="216" height="216" rx="32" fill="none" stroke="#f5f7fc" stroke-width="6"/>
  <path d="M46 120h164v44c0 8-6 14-14 14H60c-8 0-14-6-14-14v-44z" fill="#0b162f" stroke="#f5f7fc" stroke-width="4"/>
  <path d="M128 62c20 0 36 8 36 18s-16 18-36 18-36-8-36-18 16-18 36-18z" fill="#d21d2a" stroke="#f5f7fc" stroke-width="3"/>
  <path d="M128 70c12 0 22 4 22 10s-10 10-22 10-22-4-22-10 10-10 22-10z" fill="#f5f7fc"/>
  <path d="M80 126h34l-4 16H80v-16zm40 0h62l-4 16h-58v-16zm-40 24h32v16H76l4-16zm40 0h52l-4 16h-48v-16z" fill="#f5f7fc"/>
  <path d="M82 184h92v10H82z" fill="#d21d2a"/>
  <text x="128" y="148" text-anchor="middle" font-family="Inter, 'Segoe UI', sans-serif" font-size="64" font-weight="800" fill="#f5f7fc" letter-spacing="2">TFL</text>
  <text x="128" y="204" text-anchor="middle" font-family="Inter, 'Segoe UI', sans-serif" font-size="16" font-weight="700" fill="#f5f7fc" letter-spacing="1.2">TATE FOOTBALL LEAGUE</text>
</svg>
